<svg width="109" height="105" viewBox="0 0 109 105" fill="none" xmlns="http://www.w3.org/2000/svg">
<path d="M81.4234 13.0705L27.1412 13.0705C23.542 13.0705 20.0903 14.4476 17.5453 16.8987C15.0004 19.3499 13.5706 22.6744 13.5706 26.1409V78.4226C13.5706 81.8891 15.0004 85.2136 17.5453 87.6648C20.0903 90.116 23.542 91.4931 27.1412 91.4931H81.4234C85.0226 91.4931 88.4743 90.116 91.0193 87.6648C93.5642 85.2136 94.994 81.8891 94.994 78.4226V26.1409C94.994 22.6744 93.5642 19.3499 91.0193 16.8987C88.4743 14.4476 85.0226 13.0705 81.4234 13.0705ZM54.2823 26.1409C55.177 26.1409 56.0516 26.3964 56.7954 26.8752C57.5393 27.3539 58.1191 28.0344 58.4615 28.8305C58.8039 29.6266 58.8935 30.5026 58.7189 31.3477C58.5444 32.1928 58.1135 32.9692 57.4809 33.5785C56.8483 34.1878 56.0423 34.6027 55.1648 34.7708C54.2873 34.9389 53.3778 34.8527 52.5512 34.5229C51.7247 34.1931 51.0182 33.6347 50.5211 32.9182C50.0241 32.2018 49.7588 31.3594 49.7588 30.4977C49.7588 29.3422 50.2354 28.2341 51.0837 27.417C51.932 26.5999 53.0826 26.1409 54.2823 26.1409ZM36.1882 26.1409C37.0829 26.1409 37.9575 26.3964 38.7014 26.8752C39.4452 27.3539 40.025 28.0344 40.3674 28.8305C40.7098 29.6266 40.7994 30.5026 40.6248 31.3477C40.4503 32.1928 40.0195 32.9692 39.3868 33.5785C38.7542 34.1878 37.9482 34.6027 37.0707 34.7708C36.1932 34.9389 35.2837 34.8527 34.4571 34.5229C33.6306 34.1931 32.9241 33.6347 32.4271 32.9182C31.93 32.2018 31.6647 31.3594 31.6647 30.4977C31.6647 29.3422 32.1413 28.2341 32.9896 27.417C33.8379 26.5999 34.9885 26.1409 36.1882 26.1409ZM85.947 78.4226C85.947 79.5781 85.4704 80.6863 84.622 81.5034C83.7737 82.3204 82.6231 82.7794 81.4234 82.7794H27.1412C25.9415 82.7794 24.7909 82.3204 23.9426 81.5034C23.0942 80.6863 22.6177 79.5781 22.6177 78.4226V47.925L85.947 47.925V78.4226Z" fill="#9000FF"/>
</svg>
